<?xml version="1.0" encoding="UTF-8"?>
<svg id="Layer_2" data-name="Layer 2" xmlns="http://www.w3.org/2000/svg" viewBox="0 0 333.51 87.18">
  <defs>
    <style>
      .cls-1 {
        font-family: Inter-Bold, Inter;
        font-size: 28px;
        font-weight: 700;
      }

      .cls-1, .cls-2 {
        fill: #1c1c1c;
      }

      .cls-3 {
        letter-spacing: .41em;
      }

      .cls-2 {
        font-family: Inter-SemiBold, Inter;
        font-size: 19px;
        font-weight: 600;
        letter-spacing: .57em;
      }

      .cls-4 {
        letter-spacing: .42em;
      }

      .cls-5 {
        fill: #4cab65;
      }

      .cls-6 {
        letter-spacing: .33em;
      }
    </style>
  </defs>
  <g id="Layer_1-2" data-name="Layer 1">
    <g>
      <text class="cls-2" transform="translate(159.39 52.43)"><tspan x="0" y="0">KWEESHA</tspan></text>
      <text class="cls-1" transform="translate(130.54 78.23)"><tspan class="cls-3" x="0" y="0">C</tspan><tspan class="cls-4" x="32.44" y="0">API</tspan><tspan class="cls-6" x="114.65" y="0">T</tspan><tspan class="cls-4" x="142.62" y="0">AL</tspan></text>
      <path class="cls-5" d="m94.41,41.04c-10.06,0-19.74-1.61-28.81-4.59C103.56,18.05,144.9,5.52,188.43.02c-1.06-.01-2.12-.02-3.19-.02-46.47,0-90.12,12.07-127.98,33.27-3.18,1.77-6.32,3.61-9.41,5.52-1.39.85-2.76,1.72-4.13,2.6-2.41,1.54-4.79,3.12-7.15,4.75-2.51,1.72-4.99,3.5-7.44,5.31-10.32,7.64-20.05,16.02-29.13,25.07,11.17-8.41,22.8-16.24,34.84-23.44.04-.03.09-.05.13-.08,9.4-5.64,20.46-7.96,31.32-6.54,16.95,2.21,30.64,9.45,57.94,32.04l-30.19-30.19c22.38-1.52,42.45-11.47,57.06-26.69-15.66,12.17-35.33,19.42-56.69,19.42Z"/>
    </g>
  </g>
</svg>